<svg width="45" height="45" viewBox="0 0 45 45" fill="none" xmlns="http://www.w3.org/2000/svg">
<rect x="0.5" y="0.5" width="44" height="44" rx="4.5" stroke="#D9D9D9"/>
<rect x="6.5" y="6.5" width="5" height="5" rx="2.5" stroke="#707070"/>
<rect x="6.5" y="15.5" width="5" height="5" rx="2.5" stroke="#707070"/>
<rect x="6.5" y="24.5" width="5" height="5" rx="2.5" stroke="#707070"/>
<rect x="6.5" y="33.5" width="5" height="5" rx="2.5" stroke="#707070"/>
<rect x="15.5" y="6.5" width="5" height="5" rx="2.5" stroke="#707070"/>
<rect x="15.5" y="15.5" width="5" height="5" rx="2.5" stroke="#707070"/>
<rect x="15.5" y="24.5" width="5" height="5" rx="2.5" stroke="#707070"/>
<rect x="15.5" y="33.5" width="5" height="5" rx="2.5" stroke="#707070"/>
<rect x="24.5" y="6.5" width="5" height="5" rx="2.5" stroke="#707070"/>
<rect x="24.5" y="15.5" width="5" height="5" rx="2.5" stroke="#707070"/>
<rect x="24.5" y="24.5" width="5" height="5" rx="2.5" stroke="#707070"/>
<rect x="24.5" y="33.5" width="5" height="5" rx="2.5" stroke="#707070"/>
<rect x="33.5" y="6.5" width="5" height="5" rx="2.5" stroke="#707070"/>
<rect x="33.5" y="15.5" width="5" height="5" rx="2.5" stroke="#707070"/>
<rect x="33.5" y="24.5" width="5" height="5" rx="2.5" stroke="#707070"/>
<rect x="33.5" y="33.5" width="5" height="5" rx="2.5" stroke="#707070"/>
</svg>
